<svg width="185" height="185" viewBox="0 0 185 185" fill="none" xmlns="http://www.w3.org/2000/svg">
<circle cx="92.5" cy="92.5" r="52.5" fill="#003CA9" fill-opacity="0.14"/>
<circle cx="92.5" cy="92.5" r="32.5" fill="#003CA9"/>
<path d="M92 74.75H93.9167C97.9833 74.75 101.883 76.3655 104.759 79.241C107.635 82.1166 109.25 86.0167 109.25 90.0833V92H92V74.75ZM93.9167 90.0833H107.333C107.333 86.525 105.92 83.1124 103.404 80.5963C100.888 78.0802 97.475 76.6667 93.9167 76.6667V90.0833ZM88.1667 95.8333H103.5C103.5 98.866 102.601 101.831 100.916 104.352C99.231 106.874 96.8363 108.839 94.0345 109.999C91.2327 111.16 88.1497 111.464 85.1753 110.872C82.2009 110.28 79.4688 108.82 77.3244 106.676C75.18 104.531 73.7196 101.799 73.128 98.8247C72.5363 95.8503 72.84 92.7673 74.0005 89.9655C75.1611 87.1637 77.1264 84.769 79.6479 83.0841C82.1695 81.3993 85.134 80.5 88.1667 80.5V95.8333ZM86.25 97.75V82.5508C82.8978 83.042 79.8555 84.7829 77.7336 87.4241C75.6116 90.0652 74.5671 93.4112 74.8097 96.7905C75.0523 100.17 76.564 103.332 79.0415 105.643C81.5189 107.954 84.7787 109.243 88.1667 109.25C91.3934 109.25 94.5122 108.088 96.9517 105.976C99.3911 103.864 100.988 100.944 101.449 97.75H86.25Z" fill="white"/>
</svg>
