<svg width="185" height="185" viewBox="0 0 185 185" fill="none" xmlns="http://www.w3.org/2000/svg">
<circle cx="92.5" cy="92.5" r="52.5" fill="#003CA9" fill-opacity="0.14"/>
<circle cx="92.5" cy="92.5" r="32.5" fill="#003CA9"/>
<path d="M91.0417 109.292L82.3898 97.8108C84.8809 95.9281 87.9192 94.9118 91.0417 94.9167C94.2904 94.9167 97.2862 95.9938 99.6935 97.8108L91.0417 109.292ZM91.0417 106.106L96.9201 98.3053C95.1124 97.3362 93.0927 96.8305 91.0417 96.8333C88.9142 96.8333 86.9132 97.3662 85.1633 98.3053L91.0417 106.106ZM91.0417 77.6667C98.187 77.6667 104.78 80.0357 110.074 84.0338L108.922 85.5633C103.774 81.6729 97.4946 79.5728 91.0417 79.5833C84.5887 79.5728 78.3094 81.6729 73.1611 85.5633L72.0073 84.0338C77.4876 79.8918 84.1722 77.6557 91.0417 77.6667V77.6667ZM91.0417 89.1667C95.588 89.1667 99.7836 90.6751 103.155 93.2185L102.001 94.748C98.8456 92.3636 94.9968 91.0766 91.0417 91.0833C87.0866 91.0766 83.2377 92.3636 80.0822 94.748L78.9303 93.2185C82.4174 90.583 86.6707 89.1601 91.0417 89.1667V89.1667ZM91.0417 83.4167C96.662 83.4078 102.131 85.2373 106.615 88.6262L105.461 90.1557C101.309 87.0184 96.2454 85.3249 91.0417 85.3333C85.629 85.3333 80.6342 87.1293 76.6226 90.1576L75.4688 88.6243C79.9527 85.2361 85.4216 83.4073 91.0417 83.4167V83.4167Z" fill="white"/>
</svg>
