<svg width="185" height="185" viewBox="0 0 185 185" fill="none" xmlns="http://www.w3.org/2000/svg">
<circle cx="92.5" cy="92.5" r="52.5" fill="#003CA9" fill-opacity="0.14"/>
<circle cx="92.5" cy="92.5" r="32.5" fill="#003CA9"/>
<path d="M77.6667 75.75C76.1417 75.75 74.6791 76.3558 73.6008 77.4341C72.5225 78.5125 71.9167 79.975 71.9167 81.5V106.417C71.9167 107.942 72.5225 109.404 73.6008 110.483C74.6791 111.561 76.1417 112.167 77.6667 112.167H102.583C104.108 112.167 105.571 111.561 106.649 110.483C107.728 109.404 108.333 107.942 108.333 106.417V103.024C108.935 102.486 109.416 101.828 109.747 101.091C110.077 100.355 110.248 99.557 110.25 98.75V89.1667C110.248 88.3596 110.077 87.562 109.747 86.8256C109.416 86.0892 108.935 85.4305 108.333 84.8925V81.5C108.333 79.975 107.728 78.5125 106.649 77.4341C105.571 76.3558 104.108 75.75 102.583 75.75H77.6667ZM77.6667 77.6667H102.583C103.6 77.6667 104.575 78.0705 105.294 78.7894C106.013 79.5083 106.417 80.4833 106.417 81.5V83.7502C105.801 83.5309 105.153 83.4182 104.5 83.4167H93C91.475 83.4167 90.0125 84.0225 88.9341 85.1008C87.8558 86.1791 87.25 87.6417 87.25 89.1667V98.75C87.25 100.275 87.8558 101.738 88.9341 102.816C90.0125 103.894 91.475 104.5 93 104.5H104.5C105.153 104.499 105.801 104.386 106.417 104.167V106.417C106.417 107.433 106.013 108.408 105.294 109.127C104.575 109.846 103.6 110.25 102.583 110.25H77.6667C76.65 110.25 75.675 109.846 74.9561 109.127C74.2372 108.408 73.8333 107.433 73.8333 106.417V81.5C73.8333 80.4833 74.2372 79.5083 74.9561 78.7894C75.675 78.0705 76.65 77.6667 77.6667 77.6667V77.6667ZM93 85.3333H104.5C105.517 85.3333 106.492 85.7372 107.211 86.4561C107.929 87.175 108.333 88.15 108.333 89.1667V98.75C108.333 99.7667 107.929 100.742 107.211 101.461C106.492 102.179 105.517 102.583 104.5 102.583H93C91.9833 102.583 91.0083 102.179 90.2894 101.461C89.5705 100.742 89.1667 99.7667 89.1667 98.75V89.1667C89.1667 88.15 89.5705 87.175 90.2894 86.4561C91.0083 85.7372 91.9833 85.3333 93 85.3333V85.3333ZM97.7917 89.1667C96.5208 89.1667 95.3021 89.6715 94.4035 90.5701C93.5048 91.4687 93 92.6875 93 93.9583C93 95.2292 93.5048 96.4479 94.4035 97.3466C95.3021 98.2452 96.5208 98.75 97.7917 98.75C99.0625 98.75 100.281 98.2452 101.18 97.3466C102.079 96.4479 102.583 95.2292 102.583 93.9583C102.583 92.6875 102.079 91.4687 101.18 90.5701C100.281 89.6715 99.0625 89.1667 97.7917 89.1667V89.1667ZM97.7917 91.0833C98.1692 91.0833 98.5431 91.1577 98.8919 91.3022C99.2407 91.4467 99.5576 91.6584 99.8246 91.9254C100.092 92.1924 100.303 92.5093 100.448 92.8581C100.592 93.2069 100.667 93.5808 100.667 93.9583C100.667 94.3359 100.592 94.7097 100.448 95.0585C100.303 95.4074 100.092 95.7243 99.8246 95.9913C99.5576 96.2582 99.2407 96.47 98.8919 96.6145C98.5431 96.759 98.1692 96.8333 97.7917 96.8333C97.0292 96.8333 96.2979 96.5304 95.7587 95.9913C95.2196 95.4521 94.9167 94.7208 94.9167 93.9583C94.9167 93.1958 95.2196 92.4646 95.7587 91.9254C96.2979 91.3862 97.0292 91.0833 97.7917 91.0833V91.0833Z" fill="white"/>
</svg>
